<?xml version="1.0" encoding="UTF-8"?>
<svg version="1.1" xmlns="http://www.w3.org/2000/svg" width="259" height="194">
<path d="M0 0 C0.99 0.33 1.98 0.66 3 1 C2.51842957 4.17836482 1.72203116 6.64488771 0.4375 9.625 C-1.19593103 12.84861488 -1.19593103 12.84861488 -1 16 C0.76401402 17.6877081 0.76401402 17.6877081 3 19.1875 C4.11375 19.98220703 4.11375 19.98220703 5.25 20.79296875 C5.8275 21.19128906 6.405 21.58960937 7 22 C9.34287418 19.32752366 9.34287418 19.32752366 10 16 C8.44294806 14.42159428 8.44294806 14.42159428 6.5 12.875 C5.8503125 12.33617187 5.200625 11.79734375 4.53125 11.2421875 C4.0259375 10.83226562 3.520625 10.42234375 3 10 C3.66 8.68 4.32 7.36 5 6 C8.45201639 7.47721422 10.64961936 9.43794001 13.25 12.125 C13.95640625 12.84945312 14.6628125 13.57390625 15.390625 14.3203125 C15.92171875 14.87460937 16.4528125 15.42890625 17 16 C15.69659491 18.80686771 14.4744343 20.6281151 12.4375 23.0625 C9.10091433 27.79659922 9.10091433 27.79659922 9 38 C16.59 38 24.18 38 32 38 C31.5594255 27.72102341 31.5594255 27.72102341 26.1796875 20.8515625 C25 19 25 19 25.03515625 16.54296875 C26.26587054 13.29926429 27.90714634 11.89406149 30.5625 9.6875 C31.38878906 8.99011719 32.21507812 8.29273438 33.06640625 7.57421875 C34.02353516 6.79498047 34.02353516 6.79498047 35 6 C35.99 6.66 36.98 7.32 38 8 C36.33248852 11.94139078 33.77289351 14.7892812 31 18 C32.32 19.32 33.64 20.64 35 22 C37.56925072 20.19319526 39.92131193 18.36484513 42 16 C42.1927407 11.37422318 40.06864175 8.04734256 38 4 C38 3.01 38 2.02 38 1 C39.32 0.67 40.64 0.34 42 0 C44.31 4.95 46.62 9.9 49 15 C43.375 21.83035714 43.375 21.83035714 39.625 24.5 C36.59679104 26.83906803 36.59679104 26.83906803 36.625 30.8125 C36.74875 31.864375 36.8725 32.91625 37 34 C38.010625 33.195625 39.02125 32.39125 40.0625 31.5625 C45.99159339 27.80206599 53.14028901 27.67294776 60 28 C60.99 28.99 60.99 28.99 62 30 C60.68968564 32.48034449 59.37686532 34.9593035 58.0625 37.4375 C57.68931641 38.14455078 57.31613281 38.85160156 56.93164062 39.58007812 C54.11328125 44.88671875 54.11328125 44.88671875 53 46 C50.04088924 46.37650713 47.09254194 46.70736104 44.125 47 C42.48146139 47.16358705 40.83821425 47.33013617 39.1953125 47.5 C38.09727295 47.60828125 38.09727295 47.60828125 36.97705078 47.71875 C34.79395347 47.96898008 34.79395347 47.96898008 32 49 C30.88558152 53.83422278 31.25289975 57.28141619 32.43359375 62.078125 C32.66877464 63.05709747 32.66877464 63.05709747 32.90870667 64.05584717 C33.40753538 66.12336317 33.92189376 68.18661085 34.4375 70.25 C34.94627129 72.32834394 35.45182264 74.40743534 35.95558167 76.48699951 C36.4119561 78.36412655 36.87655159 80.23924916 37.34155273 82.11425781 C38 85 38 85 38 87 C36.13319132 88.38249511 34.20450208 89.68203634 32.25 90.9375 C27.91610258 93.6853414 27.91610258 93.6853414 23.921875 96.87890625 C22 98 22 98 19.67578125 97.4765625 C16.36050633 95.64711152 13.26563023 93.57121332 10.1875 91.375 C9.59001953 90.95476562 8.99253906 90.53453125 8.37695312 90.1015625 C6.91479435 89.07220272 5.45695101 88.0367177 4 87 C4.6974291 79.10120992 6.40225474 71.66842159 8.359375 63.99609375 C9.66885192 58.57004282 10.25662549 54.46556388 9 49 C4.52355446 47.50785149 -0.15544493 47.32461988 -4.83984375 46.92578125 C-9.00518779 46.49986219 -11.30706579 46.23597378 -14 43 C-15.14608354 41.03528536 -16.22483236 39.03042912 -17.25 37 C-17.79140625 35.948125 -18.3328125 34.89625 -18.890625 33.8125 C-20 31 -20 31 -19 28 C-10.16159207 28.12659178 -3.20060685 28.26890475 4 34 C4.59117839 29.471215 4.59117839 29.471215 2.875 25.39111328 C1.31001936 23.84600056 -0.29451459 22.45237411 -2 21.0625 C-4.97 18.5565625 -4.97 18.5565625 -8 16 C-5.36 10.72 -2.72 5.44 0 0 Z " fill="#56516F" transform="translate(109,48)"/>
<path d="M0 0 C0.99 0.33 1.98 0.66 3 1 C2.51842957 4.17836482 1.72203116 6.64488771 0.4375 9.625 C-1.19593103 12.84861488 -1.19593103 12.84861488 -1 16 C0.53899953 17.60767163 0.53899953 17.60767163 2.5 19.0625 C4.46875 20.59765625 4.46875 20.59765625 6 22 C6 22.66 6 23.32 6 24 C7.32 23.67 8.64 23.34 10 23 C10 23.66 10 24.32 10 25 C9.34 25 8.68 25 8 25 C8.11371497 27.29225435 8.24130964 29.58382388 8.375 31.875 C8.44460937 33.15117188 8.51421875 34.42734375 8.5859375 35.7421875 C8.67241106 39.08061699 8.67241106 39.08061699 11 41 C13.12860662 41.36952049 13.12860662 41.36952049 15.5703125 41.4140625 C16.46621094 41.45273438 17.36210938 41.49140625 18.28515625 41.53125 C19.22230469 41.5621875 20.15945312 41.593125 21.125 41.625 C22.06988281 41.66367188 23.01476562 41.70234375 23.98828125 41.7421875 C26.32532375 41.83661346 28.66235501 41.92218394 31 42 C29.47146065 46.27186525 27.28490519 49.99326863 24.875 53.8125 C24.50246094 54.40998047 24.12992188 55.00746094 23.74609375 55.62304688 C22.8342952 57.08426251 21.91764024 58.54244585 21 60 C18.00000059 57.36923129 16.27617945 54.25820168 14.3125 50.8125 C13.68988281 49.72582031 13.06726563 48.63914063 12.42578125 47.51953125 C11.72001953 46.27236328 11.72001953 46.27236328 11 45 C10.67 45.66 10.34 46.32 10 47 C4.99272938 47.11735791 0.00778971 47.10178434 -5 47 C-6.25296875 47.02320312 -6.25296875 47.02320312 -7.53125 47.046875 C-9.5 46.875 -9.5 46.875 -13 45 C-15.92691296 40.54600202 -18.23544164 36.03048671 -20 31 C-19.505 29.515 -19.505 29.515 -19 28 C-10.16159207 28.12659178 -3.20060685 28.26890475 4 34 C4.59117839 29.471215 4.59117839 29.471215 2.875 25.39111328 C1.31001936 23.84600056 -0.29451459 22.45237411 -2 21.0625 C-4.97 18.5565625 -4.97 18.5565625 -8 16 C-5.36 10.72 -2.72 5.44 0 0 Z " fill="#2E2E72" transform="translate(109,48)"/>
<path d="M0 0 C2.58377644 2.54106939 4.89144281 5.04801993 7 8 C8.65 5.36 10.3 2.72 12 0 C12.66 0.33 13.32 0.66 14 1 C14.4140625 3.28515625 14.4140625 3.28515625 14.625 6.0625 C14.69976562 6.98160156 14.77453125 7.90070313 14.8515625 8.84765625 C14.90054688 9.55792969 14.94953125 10.26820312 15 11 C14.24203125 11.48919922 14.24203125 11.48919922 13.46875 11.98828125 C12.8190625 12.42527344 12.169375 12.86226562 11.5 13.3125 C10.8503125 13.74175781 10.200625 14.17101562 9.53125 14.61328125 C9.0259375 15.07089844 8.520625 15.52851562 8 16 C8 16.99 8 17.98 8 19 C10.31 17.35 12.62 15.7 15 14 C15.66 15.32 16.32 16.64 17 18 C16.36191406 18.54269531 15.72382813 19.08539063 15.06640625 19.64453125 C13.82697266 20.71767578 13.82697266 20.71767578 12.5625 21.8125 C11.73878906 22.52019531 10.91507813 23.22789062 10.06640625 23.95703125 C7.77835241 25.91109686 7.77835241 25.91109686 7 29 C7.62648437 28.4946875 8.25296875 27.989375 8.8984375 27.46875 C9.71570313 26.8190625 10.53296875 26.169375 11.375 25.5 C12.59316406 24.52546875 12.59316406 24.52546875 13.8359375 23.53125 C16 22 16 22 18 22 C18.33 23.98 18.66 25.96 19 28 C17.45025019 29.34813187 15.88462935 30.6780343 14.3125 32 C13.00732422 33.11375 13.00732422 33.11375 11.67578125 34.25 C8.66252856 36.22071125 7.50984743 36.70196949 4 36 C1.32421875 34.25 1.32421875 34.25 -1.3125 32 C-2.19550781 31.2575 -3.07851562 30.515 -3.98828125 29.75 C-4.65214844 29.1725 -5.31601563 28.595 -6 28 C-4.63053948 18.4858532 -2.42755144 9.28597346 0 0 Z " fill="#F2BC1C" transform="translate(123,105)"/>
<path d="M0 0 C2.31 4.95 4.62 9.9 7 15 C1.375 21.83035714 1.375 21.83035714 -2.375 24.5 C-5.40320896 26.83906803 -5.40320896 26.83906803 -5.375 30.8125 C-5.25125 31.864375 -5.1275 32.91625 -5 34 C-4.01 34.495 -4.01 34.495 -3 35 C-3.99 35.33 -4.98 35.66 -6 36 C-6.33 36.99 -6.66 37.98 -7 39 C-7.33 37.68 -7.66 36.36 -8 35 C-8.33 36.32 -8.66 37.64 -9 39 C-17.25 39 -25.5 39 -34 39 C-34 34.38 -34 29.76 -34 25 C-33.34 25 -32.68 25 -32 25 C-32 24.34 -32 23.68 -32 23 C-33.32 23.33 -34.64 23.66 -36 24 C-35.34 23.05125 -34.68 22.1025 -34 21.125 C-31.82031543 18.33761045 -31.82031543 18.33761045 -32 16 C-33.55705194 14.42159428 -33.55705194 14.42159428 -35.5 12.875 C-36.1496875 12.33617187 -36.799375 11.79734375 -37.46875 11.2421875 C-37.9740625 10.83226562 -38.479375 10.42234375 -39 10 C-38.34 8.68 -37.68 7.36 -37 6 C-33.54798361 7.47721422 -31.35038064 9.43794001 -28.75 12.125 C-28.04359375 12.84945312 -27.3371875 13.57390625 -26.609375 14.3203125 C-25.81273438 15.15175781 -25.81273438 15.15175781 -25 16 C-26.30340509 18.80686771 -27.5255657 20.6281151 -29.5625 23.0625 C-32.89908567 27.79659922 -32.89908567 27.79659922 -33 38 C-25.41 38 -17.82 38 -10 38 C-10.4405745 27.72102341 -10.4405745 27.72102341 -15.8203125 20.8515625 C-17 19 -17 19 -16.96484375 16.54296875 C-15.73412946 13.29926429 -14.09285366 11.89406149 -11.4375 9.6875 C-10.61121094 8.99011719 -9.78492188 8.29273438 -8.93359375 7.57421875 C-8.29550781 7.05472656 -7.65742188 6.53523438 -7 6 C-6.01 6.66 -5.02 7.32 -4 8 C-5.66751148 11.94139078 -8.22710649 14.7892812 -11 18 C-9.68 19.32 -8.36 20.64 -7 22 C-4.43074928 20.19319526 -2.07868807 18.36484513 0 16 C0.1927407 11.37422318 -1.93135825 8.04734256 -4 4 C-4 3.01 -4 2.02 -4 1 C-2 0 -2 0 0 0 Z " fill="#4A4B89" transform="translate(151,48)"/>
<path d="M0 0 C2.78557784 2.78557784 2.3669369 5.09784293 2.55859375 8.90625 C2.82722962 11.39017821 2.82722962 11.39017821 6 13 C5.5875 14.134375 5.175 15.26875 4.75 16.4375 C3.17650726 21.17310794 1.93150551 25.96739953 0.75 30.8125 C0.56276367 31.55363037 0.37552734 32.29476074 0.18261719 33.05834961 C-0.69168245 36.73650979 -1.24208482 39.40836728 0 43 C1.65527191 44.77374316 1.65527191 44.77374316 3.75 46.25 C4.42546875 46.77078125 5.1009375 47.2915625 5.796875 47.828125 C8.51414361 49.27348064 9.95929546 49.4685215 13 49 C15.52102751 47.50758098 15.52102751 47.50758098 17.8125 45.5 C18.99779297 44.52546875 18.99779297 44.52546875 20.20703125 43.53125 C20.79871094 43.0259375 21.39039063 42.520625 22 42 C21.814375 40.865625 21.62875 39.73125 21.4375 38.5625 C21.293125 37.386875 21.14875 36.21125 21 35 C21.33 34.67 21.66 34.34 22 34 C22.23192865 32.48530552 22.41215238 30.96245438 22.5625 29.4375 C22.68818359 28.19806641 22.68818359 28.19806641 22.81640625 26.93359375 C22.90728516 25.97646484 22.90728516 25.97646484 23 25 C23.33 25 23.66 25 24 25 C25.32 31.27 26.64 37.54 28 44 C25.00520833 45.98567708 22.01041667 47.97135417 19.015625 49.95703125 C16.06217386 51.85430634 16.06217386 51.85430634 13.921875 53.88671875 C12 55 12 55 9.67578125 54.4765625 C6.36050633 52.64711152 3.26563023 50.57121332 0.1875 48.375 C-0.7087207 47.74464844 -0.7087207 47.74464844 -1.62304688 47.1015625 C-3.08520565 46.07220272 -4.54304899 45.0367177 -6 44 C-5.3025709 36.10120992 -3.59774526 28.66842159 -1.640625 20.99609375 C-0.34573961 15.63050543 0.52526431 11.37406211 -1 6 C-1.99 5.34 -2.98 4.68 -4 4 C-2.68 4 -1.36 4 0 4 C0 2.68 0 1.36 0 0 Z " fill="#4A476F" transform="translate(119,91)"/>
<path d="M0 0 C-1.31031436 2.48034449 -2.62313468 4.9593035 -3.9375 7.4375 C-4.31068359 8.14455078 -4.68386719 8.85160156 -5.06835938 9.58007812 C-7.88671875 14.88671875 -7.88671875 14.88671875 -9 16 C-11.34987262 16.23527773 -13.70556039 16.41386417 -16.0625 16.5625 C-17.35285156 16.64628906 -18.64320313 16.73007813 -19.97265625 16.81640625 C-20.97167969 16.87699219 -21.97070312 16.93757813 -23 17 C-21.68 16.34 -20.36 15.68 -19 15 C-21.97 14.67 -24.94 14.34 -28 14 C-25.83735988 10.01618925 -23.28788824 7.11016455 -20 4 C-20.99 3.67 -21.98 3.34 -23 3 C-17.25117793 -2.24157307 -6.63342213 -4.42228142 0 0 Z " fill="#525582" transform="translate(171,78)"/>
<path d="M0 0 C6.93 0 13.86 0 21 0 C19.2868951 4.28276226 17.31473175 7.94599933 14.875 11.8125 C14.50246094 12.40998047 14.12992188 13.00746094 13.74609375 13.62304688 C12.8342952 15.08426251 11.91764024 16.54244585 11 18 C7.73171993 15.21629142 5.87542089 11.56811335 3.8125 7.875 C3.44447266 7.22917969 3.07644531 6.58335938 2.69726562 5.91796875 C0 1.14395872 0 1.14395872 0 0 Z " fill="#F2BB1D" transform="translate(119,90)"/>
<path d="M0 0 C2.58377644 2.54106939 4.89144281 5.04801993 7 8 C8.65 5.36 10.3 2.72 12 0 C12.66 0.33 13.32 0.66 14 1 C14.4140625 3.28515625 14.4140625 3.28515625 14.625 6.0625 C14.69976562 6.98160156 14.77453125 7.90070313 14.8515625 8.84765625 C14.90054688 9.55792969 14.94953125 10.26820312 15 11 C13.35 11.99 11.7 12.98 10 14 C10 13.01 10 12.02 10 11 C8.68 11.33 7.36 11.66 6 12 C6 11.34 6 10.68 6 10 C3.12331877 11.17198124 1.25636824 11.94686124 -1 14 C-2.7721728 18.5787469 -3 23.12970981 -3 28 C-1.08333079 30.25065102 -1.08333079 30.25065102 1 32 C-1.91517292 30.92598892 -3.77810176 30.22189824 -6 28 C-5.57819048 18.62284999 -2.3681696 9.05882353 0 0 Z " fill="#E9B92A" transform="translate(123,105)"/>
<path d="M0 0 C3.45201639 1.47721422 5.64961936 3.43794001 8.25 6.125 C8.95640625 6.84945312 9.6628125 7.57390625 10.390625 8.3203125 C11.18726562 9.15175781 11.18726562 9.15175781 12 10 C10.69659491 12.80686771 9.4744343 14.6281151 7.4375 17.0625 C4.10091433 21.79659922 4.10091433 21.79659922 4 32 C11.59 32 19.18 32 27 32 C26.67 28.04 26.34 24.08 26 20 C26.66 20 27.32 20 28 20 C28 24.29 28 28.58 28 33 C19.75 33 11.5 33 3 33 C3 28.38 3 23.76 3 19 C3.66 19 4.32 19 5 19 C5 18.34 5 17.68 5 17 C3.68 17.33 2.36 17.66 1 18 C1.66 17.05125 2.32 16.1025 3 15.125 C5.17968457 12.33761045 5.17968457 12.33761045 5 10 C3.44294806 8.42159428 3.44294806 8.42159428 1.5 6.875 C0.8503125 6.33617187 0.200625 5.79734375 -0.46875 5.2421875 C-0.9740625 4.83226562 -1.479375 4.42234375 -2 4 C-1.34 2.68 -0.68 1.36 0 0 Z " fill="#8B8EBD" transform="translate(114,54)"/>
<path d="M0 0 C7.4909467 -0.85961683 11.43315444 0.92520097 17.71484375 4.98046875 C20.21581556 7.19072931 21.04459122 8.83896182 22 12 C7.56223057 12.27145042 7.56223057 12.27145042 3.859375 9.2578125 C2.59936164 7.18562185 1.72374063 5.31057568 1 3 C0.67 2.01 0.34 1.02 0 0 Z " fill="#DDB540" transform="translate(94,80)"/>
<path d="M0 0 C0.33 0 0.66 0 1 0 C1.33 3.63 1.66 7.26 2 11 C2.598125 10.34 3.19625 9.68 3.8125 9 C6 7 6 7 9 7 C7.44499019 10.81684226 4.96404505 13.19195732 2 16 C5.3 16.33 8.6 16.66 12 17 C8.90097677 20.09902323 6.60852615 19.9898579 2.25 20.0625 C1.1775 20.041875 0.105 20.02125 -1 20 C-1.495 17.525 -1.495 17.525 -2 15 C-8.93 15 -15.86 15 -23 15 C-23.33 14.01 -23.66 13.02 -24 12 C-16.08 12 -8.16 12 0 12 C0 8.04 0 4.08 0 0 Z " fill="#3D395C" transform="translate(142,75)"/>
<path d="M0 0 C-1.3428469 3.61535703 -2.66244526 6.91822377 -5 10 C-7.99609375 10.9609375 -7.99609375 10.9609375 -11.4375 11.375 C-12.57058594 11.52710937 -13.70367187 11.67921875 -14.87109375 11.8359375 C-17.59774145 11.97890779 -19.44456104 11.86646333 -22 11 C-16.44167485 2.78334543 -9.78014372 -0.93144226 0 0 Z " fill="#EEBC29" transform="translate(165,80)"/>
<path d="M0 0 C1.65 1.32 3.3 2.64 5 4 C4.01 4.33 3.02 4.66 2 5 C1.67 5.66 1.34 6.32 1 7 C0.34 7 -0.32 7 -1 7 C-1.33 9.31 -1.66 11.62 -2 14 C-2.66 14 -3.32 14 -4 14 C-5.36277086 15.78965547 -5.36277086 15.78965547 -6.625 18 C-7.07101563 18.7425 -7.51703125 19.485 -7.9765625 20.25 C-8.31429687 20.8275 -8.65203125 21.405 -9 22 C-11.2841369 19.79721592 -12.79488782 17.96642998 -14 15 C-14 14.01 -14 13.02 -14 12 C-15.32 11.34 -16.64 10.68 -18 10 C-18 7.69 -18 5.38 -18 3 C-15.45868642 5.30283254 -13.92889705 7.67313793 -12.3125 10.6875 C-11.87550781 11.49574219 -11.43851562 12.30398437 -10.98828125 13.13671875 C-10.66214844 13.75160156 -10.33601562 14.36648437 -10 15 C-6.00887919 10.39486061 -3.05543741 5.24516756 0 0 Z " fill="#443951" transform="translate(139,92)"/>
<path d="M0 0 C0.99 0.33 1.98 0.66 3 1 C2.51842957 4.17836482 1.72203116 6.64488771 0.4375 9.625 C-1.19593103 12.84861488 -1.19593103 12.84861488 -1 16 C0.53353564 17.67845419 0.53353564 17.67845419 2.5 19.1875 C3.1496875 19.71730469 3.799375 20.24710938 4.46875 20.79296875 C4.9740625 21.19128906 5.479375 21.58960937 6 22 C5.34 22.66 4.68 23.32 4 24 C3.34 23.01 2.68 22.02 2 21 C1.34 21 0.68 21 0 21 C-0.33 21.66 -0.66 22.32 -1 23 C-3.31 20.69 -5.62 18.38 -8 16 C-5.36 10.72 -2.72 5.44 0 0 Z " fill="#62659A" transform="translate(109,48)"/>
<path d="M0 0 C0.99 0.66 1.98 1.32 3 2 C1.33248852 5.94139078 -1.22710649 8.7892812 -4 12 C-3.0409375 12.928125 -3.0409375 12.928125 -2.0625 13.875 C0 16 0 16 1 18 C-1.6875 18.875 -1.6875 18.875 -5 19 C-7.9375 16.375 -7.9375 16.375 -10 13 C-9.88004192 9.59209996 -9.2615407 8.28329456 -6.93359375 5.76171875 C-6.10988281 5.07722656 -5.28617188 4.39273438 -4.4375 3.6875 C-3.61121094 2.99011719 -2.78492188 2.29273438 -1.93359375 1.57421875 C-1.29550781 1.05472656 -0.65742188 0.53523438 0 0 Z " fill="#534F93" transform="translate(144,54)"/>
<path d="M0 0 C0.33 1.98 0.66 3.96 1 6 C-0.54974981 7.34813187 -2.11537065 8.6780343 -3.6875 10 C-4.99267578 11.11375 -4.99267578 11.11375 -6.32421875 12.25 C-9.25177084 14.16466181 -10.5800642 14.56218123 -14 14 C-15.8125 12 -15.8125 12 -17 10 C-14.69 10.66 -12.38 11.32 -10 12 C-10.515625 11.608125 -11.03125 11.21625 -11.5625 10.8125 C-12.036875 10.214375 -12.51125 9.61625 -13 9 C-12.6875 6.3125 -12.6875 6.3125 -12 4 C-11.67 4.99 -11.34 5.98 -11 7 C-10.37351563 6.4946875 -9.74703125 5.989375 -9.1015625 5.46875 C-8.28429687 4.8190625 -7.46703125 4.169375 -6.625 3.5 C-5.81289062 2.8503125 -5.00078125 2.200625 -4.1640625 1.53125 C-2 0 -2 0 0 0 Z " fill="#D5B14E" transform="translate(141,127)"/>
<path d="M0 0 C2.1875 0.4375 2.1875 0.4375 5 2 C5.73074361 3.50053459 6.41330226 5.0249264 7.0625 6.5625 C8.1640963 9.05337031 8.1640963 9.05337031 10 11 C14.02551466 12.09595164 17.84710091 12.16558609 22 12 C20.02 12.99 20.02 12.99 18 14 C19.32 14.66 20.64 15.32 22 16 C19.30406405 16.09628343 16.69088923 16.10102315 14 16 C13.30648437 15.99226563 12.61296875 15.98453125 11.8984375 15.9765625 C9.45384457 15.7028436 8.07787153 15.35104404 6 14 C3.30798896 9.99062186 0 4.96202801 0 0 Z " fill="#58547B" transform="translate(90,79)"/>
<path d="M0 0 C0.33 0 0.66 0 1 0 C2.32 6.27 3.64 12.54 5 19 C1.535 21.475 1.535 21.475 -2 24 C-2.66 23.67 -3.32 23.34 -4 23 C-3.690625 22.2575 -3.38125 21.515 -3.0625 20.75 C-1.44908964 16.57411436 -0.80311332 14.33871423 -2 10 C-1.67 9.67 -1.34 9.34 -1 9 C-0.76807135 7.48530552 -0.58784762 5.96245438 -0.4375 4.4375 C-0.35371094 3.61121094 -0.26992187 2.78492187 -0.18359375 1.93359375 C-0.12300781 1.29550781 -0.06242188 0.65742187 0 0 Z " fill="#68628B" transform="translate(142,116)"/>
<path d="M0 0 C4.875 2.875 4.875 2.875 6 4 C8.33071879 4.41870553 8.33071879 4.41870553 11 4 C12.678298 2.68133728 14.34614767 1.34919532 16 0 C16.99 0.33 17.98 0.66 19 1 C17.69860809 4.90417573 15.10397559 6.91203219 11.80859375 9.15234375 C10 10 10 10 7.25 9.4375 C5.48728688 8.31132217 3.74044438 7.16029625 2 6 C2 5.34 2 4.68 2 4 C1.34 3.67 0.68 3.34 0 3 C0 2.01 0 1.02 0 0 Z " fill="#4E4D73" transform="translate(121,136)"/>
<path d="M0 0 C6.93 0 13.86 0 21 0 C19.47489648 3.81275879 17.99242873 6.86017055 15.875 10.3125 C15.33617187 11.19550781 14.79734375 12.07851562 14.2421875 12.98828125 C13.83226562 13.65214844 13.42234375 14.31601563 13 15 C12.67 13.68 12.34 12.36 12 11 C12.66 11 13.32 11 14 11 C14.99 8.03 15.98 5.06 17 2 C12.71 2 8.42 2 4 2 C3.67 3.32 3.34 4.64 3 6 C2.01 4.02 1.02 2.04 0 0 Z " fill="#DBB858" transform="translate(119,90)"/>
<path d="M0 0 C0.99 0 1.98 0 3 0 C0.88307528 7.16497597 0.88307528 7.16497597 -2 10 C-5.35546875 10.609375 -5.35546875 10.609375 -9.1875 10.75 C-10.45980469 10.80671875 -11.73210937 10.8634375 -13.04296875 10.921875 C-14.01878906 10.94765625 -14.99460938 10.9734375 -16 11 C-14.68 10.34 -13.36 9.68 -12 9 C-13.65 8.67 -15.3 8.34 -17 8 C-17 7.67 -17 7.34 -17 7 C-10.565 6.505 -10.565 6.505 -4 6 C-3.67 5.01 -3.34 4.02 -3 3 C-2.01 3.33 -1.02 3.66 0 4 C0 2.68 0 1.36 0 0 Z " fill="#656184" transform="translate(164,84)"/>
<path d="M0 0 C1.32 1.32 2.64 2.64 4 4 C3.67 4.66 3.34 5.32 3 6 C2.34 6 1.68 6 1 6 C0.87625 7.03125 0.7525 8.0625 0.625 9.125 C0 13 0 13 -1 15.875 C-2.28024529 19.87576654 -3.23246136 23.77561596 -3 28 C-1.24905348 30.5905727 -1.24905348 30.5905727 1 32 C-1.91517292 30.92598892 -3.77810176 30.22189824 -6 28 C-5.57819048 18.62284999 -2.3681696 9.05882353 0 0 Z " fill="#D4B157" transform="translate(123,105)"/>
<path d="M0 0 C1.70063265 2.72101224 2.16364571 4.98708624 2.4375 8.125 C2.623125 9.40375 2.80875 10.6825 3 12 C3.99 12.66 4.98 13.32 6 14 C6 15.32 6 16.64 6 18 C6.99 18.33 7.98 18.66 9 19 C4.86356447 19 4.30197567 18.84767359 1.25 16.5 C0.63640625 16.0359375 0.0228125 15.571875 -0.609375 15.09375 C-1.06828125 14.7328125 -1.5271875 14.371875 -2 14 C-1.03644647 4.58997722 -1.03644647 4.58997722 0 0 Z " fill="#494774" transform="translate(115,121)"/>
<path d="M0 0 C1.32 0.33 2.64 0.66 4 1 C3.01 1.495 3.01 1.495 2 2 C2 2.99 2 3.98 2 5 C4.31 3.35 6.62 1.7 9 0 C9.66 1.32 10.32 2.64 11 4 C9.52351062 5.33629746 8.0437367 6.66896671 6.5625 8 C5.73878906 8.7425 4.91507813 9.485 4.06640625 10.25 C2 12 2 12 1 12 C0.01751476 7.9472484 -0.08159574 4.16138263 0 0 Z " fill="#D6AF4A" transform="translate(129,119)"/>
<path d="M0 0 C0.33 0 0.66 0 1 0 C1.33 3.63 1.66 7.26 2 11 C2.598125 10.34 3.19625 9.68 3.8125 9 C6 7 6 7 9 7 C7.49776416 11.20626034 4.71449966 12.73900021 1 15 C1 14.34 1 13.68 1 13 C-7.25 13 -15.5 13 -24 13 C-24 12.67 -24 12.34 -24 12 C-16.08 12 -8.16 12 0 12 C0 8.04 0 4.08 0 0 Z " fill="#25255F" transform="translate(142,75)"/>
<path d="M0 0 C0.86375896 1.61992165 1.71575854 3.24611861 2.5625 4.875 C3.03816406 5.77992187 3.51382813 6.68484375 4.00390625 7.6171875 C4.49697266 8.79667969 4.49697266 8.79667969 5 10 C3.89131683 12.21736634 2.50559539 14.03617993 1 16 C0.34865075 14.43979133 -0.29582964 12.87671421 -0.9375 11.3125 C-1.29714844 10.44238281 -1.65679687 9.57226562 -2.02734375 8.67578125 C-2.9570312 6.11820735 -3.54162625 3.6778677 -4 1 C-2 0 -2 0 0 0 Z " fill="#65659C" transform="translate(151,48)"/>
<path d="M0 0 C1.97999456 1.64910598 2.91174237 2.69885426 3.64453125 5.19921875 C3.83955933 8.0883557 3.80359252 10.20184965 3 13 C0.06553066 16.29400793 -3.19999941 18.76983572 -7 21 C-7.66 21 -8.32 21 -9 21 C-8.63047696 18.29016439 -8.27246846 17.23156939 -6.15234375 15.4296875 C-5.42144531 14.91664062 -4.69054687 14.40359375 -3.9375 13.875 C-1.29430682 11.7123874 -0.14045104 10.71265898 0.52734375 7.32421875 C0.50272645 4.83787189 0.35631573 2.45956832 0 0 Z " fill="#3A345F" transform="translate(139,113)"/>
<path d="M0 0 C-1.1858237 3.37503669 -2.27573689 5.64722731 -5 8 C-5 6.35 -5 4.7 -5 3 C-6.0725 3.515625 -7.145 4.03125 -8.25 4.5625 C-11.25254899 6.00603317 -12.83246499 6.05818094 -16 5 C-10.54259658 0.35540135 -7.11807295 -0.72633397 0 0 Z " fill="#E5B83D" transform="translate(165,80)"/>
<path d="M0 0 C2.12563103 0.11376617 4.2505261 0.24135631 6.375 0.375 C8.15003906 0.47941406 8.15003906 0.47941406 9.9609375 0.5859375 C13.72068095 1.09819046 14.38171285 2.19147065 16.625 5.125 C17.07875 5.74375 17.5325 6.3625 18 7 C17.29101562 6.68160156 16.58203125 6.36320312 15.8515625 6.03515625 C12.9115273 4.9678832 10.48543244 4.63886408 7.375 4.4375 C4.29086955 4.23048302 1.94836636 3.98278879 -1 3 C-0.67 2.01 -0.34 1.02 0 0 Z " fill="#322F65" transform="translate(90,76)"/>
<path d="M0 0 C0.66 0.33 1.32 0.66 2 1 C1.835 1.515625 1.67 2.03125 1.5 2.5625 C0.84951 5.73363876 0.9379266 8.77218334 1 12 C1.66 12.33 2.32 12.66 3 13 C2.01 13.33 1.02 13.66 0 14 C-0.33 14.99 -0.66 15.98 -1 17 C-1.79539539 14.27293011 -2.1543515 11.62881636 -2.4375 8.8125 C-2.623125 7.554375 -2.80875 6.29625 -3 5 C-3.66 4.67 -4.32 4.34 -5 4 C-5 3.34 -5 2.68 -5 2 C-3.35 2 -1.7 2 0 2 C0 1.34 0 0.68 0 0 Z " fill="#3C3F83" transform="translate(145,70)"/>
<path d="M0 0 C0.33 0 0.66 0 1 0 C1 2.97 1 5.94 1 9 C0.34 9 -0.32 9 -1 9 C-0.67 9.99 -0.34 10.98 0 12 C-4.43843439 10.60506348 -6.9434964 8.48101799 -10 5 C-10.33 4.01 -10.66 3.02 -11 2 C-7.40608886 3.33488128 -4.24509304 4.96022723 -1 7 C-0.67 4.69 -0.34 2.38 0 0 Z " fill="#646392" transform="translate(114,75)"/>
<path d="M0 0 C0.99 0.66 1.98 1.32 3 2 C1.50902342 5.7952131 -0.75700849 7.61042731 -4 10 C-4.66 9.34 -5.32 8.68 -6 8 C-6.66 7.67 -7.32 7.34 -8 7 C-5.36 4.69 -2.72 2.38 0 0 Z " fill="#6D6DA0" transform="translate(144,54)"/>
<path d="M0 0 C2.78557784 2.78557784 2.3669369 5.09784293 2.55859375 8.90625 C2.82722962 11.39017821 2.82722962 11.39017821 6 13 C5.67 13.66 5.34 14.32 5 15 C3.68 14.67 2.36 14.34 1 14 C0.67 14.66 0.34 15.32 0 16 C0.03255208 13.98177083 0.06510417 11.96354167 0.09765625 9.9453125 C0.12649242 7.91814596 0.12649242 7.91814596 -1 6 C-1.99 5.34 -2.98 4.68 -4 4 C-2.68 4 -1.36 4 0 4 C0 2.68 0 1.36 0 0 Z " fill="#6E6F99" transform="translate(119,91)"/>
<path d="M0 0 C3.63 0 7.26 0 11 0 C11 1.98 11 3.96 11 6 C10.01 6 9.02 6 8 6 C8 7.32 8 8.64 8 10 C7.34 10 6.68 10 6 10 C6.54723683 6.62537285 7.0549 4.91765 9 2 C6.03 2 3.06 2 0 2 C0 1.34 0 0.68 0 0 Z " fill="#343165" transform="translate(156,78)"/>
<path d="M0 0 C6.93 0.495 6.93 0.495 14 1 C10.90097677 4.09902323 8.60852615 3.9898579 4.25 4.0625 C3.1775 4.041875 2.105 4.02125 1 4 C0.67 2.68 0.34 1.36 0 0 Z " fill="#2D2F6A" transform="translate(140,91)"/>
<path d="M0 0 C0.66 0.33 1.32 0.66 2 1 C2.4140625 3.28515625 2.4140625 3.28515625 2.625 6.0625 C2.69976562 6.98160156 2.77453125 7.90070313 2.8515625 8.84765625 C2.90054688 9.55792969 2.94953125 10.26820312 3 11 C0.525 12.485 0.525 12.485 -2 14 C-2.33 12.68 -2.66 11.36 -3 10 C-1.68 10 -0.36 10 1 10 C1 8.02 1 6.04 1 4 C0.01 4.33 -0.98 4.66 -2 5 C-1.34 3.35 -0.68 1.7 0 0 Z " fill="#D2B25C" transform="translate(135,105)"/>
<path d="M0 0 C0.33 0 0.66 0 1 0 C1.98419339 4.05979772 2.23183367 7.82699392 2 12 C1.01 13.485 1.01 13.485 0 15 C-0.66 13.35 -1.32 11.7 -2 10 C-1.67 9.67 -1.34 9.34 -1 9 C-0.76807135 7.48530552 -0.58784762 5.96245438 -0.4375 4.4375 C-0.35371094 3.61121094 -0.26992187 2.78492187 -0.18359375 1.93359375 C-0.12300781 1.29550781 -0.06242188 0.65742187 0 0 Z " fill="#5B5888" transform="translate(142,116)"/>
<path d="M0 0 C2.86724686 0.57344937 3.8614515 0.8614515 6 3 C8.58354218 3.16687448 8.58354218 3.16687448 11 3 C11 3.66 11 4.32 11 5 C10.34 5 9.68 5 9 5 C9 5.66 9 6.32 9 7 C5.36891547 6.69740962 4.21859619 6.2363202 1.6875 3.5 C0 1 0 1 0 0 Z " fill="#37387E" transform="translate(108,68)"/>
<path d="M0 0 C0 1.98 0 3.96 0 6 C-1.98 6.66 -3.96 7.32 -6 8 C-6 6.68 -6 5.36 -6 4 C-1.66666667 0 -1.66666667 0 0 0 Z " fill="#E8B92E" transform="translate(140,129)"/>
<path d="M0 0 C2.97 0.99 5.94 1.98 9 3 C9 3.66 9 4.32 9 5 C5.04 4.67 1.08 4.34 -3 4 C-2.01 2.68 -1.02 1.36 0 0 Z " fill="#F2BA18" transform="translate(104,85)"/>
<path d="M0 0 C4.875 3.75 4.875 3.75 6 6 C4.02 6.33 2.04 6.66 0 7 C-0.99 5.35 -1.98 3.7 -3 2 C-2.01 2 -1.02 2 0 2 C0 1.34 0 0.68 0 0 Z " fill="#6D6EA3" transform="translate(139,66)"/>
<path d="M0 0 C-0.25 2.375 -0.25 2.375 -1 5 C-3.0625 6.3125 -3.0625 6.3125 -5 7 C-5 6.34 -5 5.68 -5 5 C-5.99 4.67 -6.98 4.34 -8 4 C-2.25 0 -2.25 0 0 0 Z " fill="#5E5B80" transform="translate(156,77)"/>
<path d="M0 0 C3.25543229 0.34879632 4.01873107 1.02133261 6.25 3.5625 C6.8275 4.366875 7.405 5.17125 8 6 C7.01 6 6.02 6 5 6 C4.67 5.34 4.34 4.68 4 4 C3.34 4 2.68 4 2 4 C1.67 4.66 1.34 5.32 1 6 C0.01 4.68 -0.98 3.36 -2 2 C-1.34 2 -0.68 2 0 2 C0 1.34 0 0.68 0 0 Z " fill="#7E80AE" transform="translate(107,65)"/>
<path d="M0 0 C-0.125 1.75 -0.125 1.75 -1 4 C-4.0625 6.25 -4.0625 6.25 -7 8 C-6.65930765 4.84859577 -6.41923159 3.39218439 -4.0625 1.1875 C-2 0 -2 0 0 0 Z " fill="#413845" transform="translate(137,117)"/>
<path d="M0 0 C0.99 0 1.98 0 3 0 C2.67 2.64 2.34 5.28 2 8 C1.01 8 0.02 8 -1 8 C-1.93065133 5.39417629 -2.14917407 4.35801776 -1.0625 1.75 C-0.711875 1.1725 -0.36125 0.595 0 0 Z " fill="#584F74" transform="translate(120,105)"/>
<path d="M0 0 C0.5775 0.45375 1.155 0.9075 1.75 1.375 C3.7800333 2.84113516 5.73539843 3.94857784 8 5 C8 5.66 8 6.32 8 7 C6.35 7.33 4.7 7.66 3 8 C3 7.01 3 6.02 3 5 C2.34 5 1.68 5 1 5 C0.34 3.68 -0.32 2.36 -1 1 C-0.67 0.67 -0.34 0.34 0 0 Z " fill="#444987" transform="translate(118,59)"/>
<path d="M0 0 C0.66 1.32 1.32 2.64 2 4 C0.68 4.99 -0.64 5.98 -2 7 C-2.66 6.67 -3.32 6.34 -4 6 C-3.6875 4.125 -3.6875 4.125 -3 2 C-2.01 1.34 -1.02 0.68 0 0 Z " fill="#E3B952" transform="translate(138,119)"/>
<path d="M0 0 C0.33 1.32 0.66 2.64 1 4 C1.66 4 2.32 4 3 4 C3.28875 4.804375 3.5775 5.60875 3.875 6.4375 C4.73262568 9.1326468 4.73262568 9.1326468 7 10 C6.67 10.99 6.34 11.98 6 13 C2.70032335 10.19527484 0.91540896 6.83081791 -1 3 C-0.67 2.01 -0.34 1.02 0 0 Z " fill="#DCB45C" transform="translate(124,95)"/>
<path d="M0 0 C1.5 1.375 1.5 1.375 3 3 C3 3.66 3 4.32 3 5 C-2.28 4.67 -7.56 4.34 -13 4 C-13 3.67 -13 3.34 -13 3 C-8.71 3 -4.42 3 0 3 C0 2.01 0 1.02 0 0 Z " fill="#C3A56B" transform="translate(113,87)"/>
<path d="M0 0 C2.97 0 5.94 0 9 0 C7.92598892 2.91517292 7.22189824 4.77810176 5 7 C5 5.02 5 3.04 5 1 C3.02 1.33 1.04 1.66 -1 2 C-0.67 1.34 -0.34 0.68 0 0 Z " fill="#CDAB5C" transform="translate(156,80)"/>
<path d="M0 0 C0.33 0 0.66 0 1 0 C1.66 3.3 2.32 6.6 3 10 C1.68 9.67 0.36 9.34 -1 9 C-0.67 6.03 -0.34 3.06 0 0 Z " fill="#696698" transform="translate(144,125)"/>
<path d="M0 0 C1.32 0 2.64 0 4 0 C2.86280581 3.41158256 1.95657056 4.11854601 -1 6 C-1.66 6 -2.32 6 -3 6 C-2.42655063 3.13275314 -2.1385485 2.1385485 0 0 Z " fill="#433847" transform="translate(133,128)"/>
<path d="M0 0 C2.31 0.33 4.62 0.66 7 1 C7 1.99 7 2.98 7 4 C7.99 4.33 8.98 4.66 10 5 C5.27635085 5 3.7011388 3.7758541 0 1 C0 0.67 0 0.34 0 0 Z " fill="#636498" transform="translate(114,135)"/>
<path d="M0 0 C5.95703125 -0.29296875 5.95703125 -0.29296875 8 0 C8.99 0.99 9.98 1.98 11 3 C7.37 3 3.74 3 0 3 C0 2.01 0 1.02 0 0 Z " fill="#E2B440" transform="translate(97,81)"/>
<path d="M0 0 C1.65 1.32 3.3 2.64 5 4 C4.01 4.33 3.02 4.66 2 5 C1.34 5.66 0.68 6.32 0 7 C-0.66 6.67 -1.32 6.34 -2 6 C-1.125 1.125 -1.125 1.125 0 0 Z " fill="#5A5B7E" transform="translate(139,92)"/>
<path d="M0 0 C0.66 0.66 1.32 1.32 2 2 C2.99 2.33 3.98 2.66 5 3 C3.68 4.32 2.36 5.64 1 7 C0.01 6.01 -0.98 5.02 -2 4 C-1.34 2.68 -0.68 1.36 0 0 Z " fill="#6F70A8" transform="translate(120,64)"/>
<path d="M0 0 C1.32 0 2.64 0 4 0 C4 1.32 4 2.64 4 4 C2.35 4.66 0.7 5.32 -1 6 C-0.67 4.02 -0.34 2.04 0 0 Z " fill="#51548C" transform="translate(104,57)"/>
<path d="M0 0 C0.99 0.33 1.98 0.66 3 1 C1.625 2.5 1.625 2.5 0 4 C-0.66 4 -1.32 4 -2 4 C-2.33 4.66 -2.66 5.32 -3 6 C-4.32 5.67 -5.64 5.34 -7 5 C-5.90554162 4.13342884 -4.79902219 3.28207276 -3.6875 2.4375 C-3.07261719 1.96183594 -2.45773438 1.48617187 -1.82421875 0.99609375 C-1.22222656 0.66738281 -0.62023437 0.33867187 0 0 Z " fill="#3A3556" transform="translate(137,136)"/>
<path d="M0 0 C0.33 0.66 0.66 1.32 1 2 C4.63 2 8.26 2 12 2 C12 2.33 12 2.66 12 3 C7.38 3.33 2.76 3.66 -2 4 C-1.34 2.68 -0.68 1.36 0 0 Z " fill="#C9AC6B" transform="translate(145,88)"/>
<path d="M0 0 C0.33 0.66 0.66 1.32 1 2 C1.99 2.33 2.98 2.66 4 3 C2.625 4.5 2.625 4.5 1 6 C0.34 6 -0.32 6 -1 6 C-1.66 4.68 -2.32 3.36 -3 2 C-2.01 1.34 -1.02 0.68 0 0 Z " fill="#6B6AA6" transform="translate(148,67)"/>
<path d="M0 0 C0.99 0.33 1.98 0.66 3 1 C0.63707344 3.52588702 -0.66462511 4.88820837 -4 6 C-4 5.34 -4 4.68 -4 4 C-4.66 4 -5.32 4 -6 4 C-5.67 3.34 -5.34 2.68 -5 2 C-3.02 2.495 -3.02 2.495 -1 3 C-0.67 2.01 -0.34 1.02 0 0 Z " fill="#5C5C8D" transform="translate(135,139)"/>
<path d="M0 0 C1.85776765 3.13498292 2.20140476 5.37471432 2 9 C1.01 8.67 0.02 8.34 -1 8 C-0.67 5.36 -0.34 2.72 0 0 Z " fill="#60629B" transform="translate(138,99)"/>
<path d="M0 0 C1.88343932 3.76687864 2.22057835 5.02958963 2 9 C1.01 9 0.02 9 -1 9 C-0.67 6.03 -0.34 3.06 0 0 Z " fill="#7472A2" transform="translate(115,121)"/>
<path d="M0 0 C1.5 1.125 1.5 1.125 3 3 C3.1875 6.1875 3.1875 6.1875 3 9 C2.01 8.34 1.02 7.68 0 7 C-0.1875 3.375 -0.1875 3.375 0 0 Z " fill="#383664" transform="translate(121,95)"/>
<path d="M0 0 C1.32 0.33 2.64 0.66 4 1 C4 3.31 4 5.62 4 8 C1.84622436 5.37801226 0.59927826 3.35595828 0 0 Z " fill="#666096" transform="translate(90,79)"/>
<path d="M0 0 C1.32 1.32 2.64 2.64 4 4 C3.67 4.66 3.34 5.32 3 6 C1.68 6 0.36 6 -1 6 C-0.67 4.02 -0.34 2.04 0 0 Z " fill="#D2B562" transform="translate(123,105)"/>
<path d="M0 0 C1.485 0.99 1.485 0.99 3 2 C2.34 4.31 1.68 6.62 1 9 C0.34 8.34 -0.32 7.68 -1 7 C-0.625 3.375 -0.625 3.375 0 0 Z " fill="#312E6C" transform="translate(136,97)"/>
<path d="M0 0 C0.33 1.32 0.66 2.64 1 4 C0.34 4 -0.32 4 -1 4 C-1.66 4.66 -2.32 5.32 -3 6 C-3.33 4.35 -3.66 2.7 -4 1 C-2 0 -2 0 0 0 Z " fill="#898CB2" transform="translate(151,48)"/>
</svg>
